<svg xmlns="http://www.w3.org/2000/svg" xmlns:xlink="http://www.w3.org/1999/xlink" contentstyletype="text/css" data-diagram-type="CLASS" height="540.9774px" preserveAspectRatio="none" style="width:700px;height:540px;background:#003153;" version="1.1" viewBox="0 0 700 540" width="700.3799px" zoomAndPan="magnify"><title>Main Base Classes</title><defs></defs><g><rect fill="#003153" height="540.9774" style="stroke:none;stroke-width:0.8259;" width="700.3799" x="0" y="0"></rect><g class="title" data-source-line="4"><text fill="#D9D3D0" font-family="Verdana" font-size="18.1702" font-weight="bold" lengthAdjust="spacing" textLength="188.0016" x="252.6955" y="29.2548">Main Base Classes</text></g><!--cluster diffusers--><g class="cluster" data-entity="diffusers" data-source-line="7" data-uid="ent0002" id="cluster_diffusers"><path d="M11.1499,47.5807 L69.8184,47.5807 A3.0972,3.0972 0 0 1 71.8832,49.6455 L77.6647,65.9961 L692.9797,65.9961 A2.0648,2.0648 0 0 1 695.0445,68.0609 L695.0445,533.6345 A2.0648,2.0648 0 0 1 692.9797,535.6993 L11.1499,535.6993 A2.0648,2.0648 0 0 1 9.0851,533.6345 L9.0851,49.6455 A2.0648,2.0648 0 0 1 11.1499,47.5807" fill="#003153" style="stroke:#D9D3D0;stroke-width:0.8259;"></path><line style="stroke:#D9D3D0;stroke-width:0.8259;" x1="9.0851" x2="77.6647" y1="65.9961" y2="65.9961"></line><text fill="#D9D3D0" font-family="Verdana" font-size="11.5629" font-weight="bold" lengthAdjust="spacing" textLength="57.8426" x="12.3888" y="59.9655">diffusers</text></g><!--class ConfigMixin--><g class="entity" data-entity="ConfigMixin" data-source-line="9" data-uid="ent0003" id="entity_ConfigMixin"><rect fill="#003153" height="90.1801" rx="2.0648" ry="2.0648" style="stroke:#D9D3D0;stroke-width:0.8259;" width="132.2439" x="39.6111" y="431.972"></rect><ellipse cx="68.9988" cy="443.5349" fill="#003153" rx="7.4333" ry="7.4333" style="stroke:#D9D3D0;stroke-width:0.8259;"></ellipse><path d="M71.4507,448.1936 Q70.9732,448.4388 70.4441,448.5549 Q69.915,448.684 69.3343,448.684 Q67.2695,448.684 66.1726,447.329 Q65.0886,445.961 65.0886,443.38 Q65.0886,440.799 66.1726,439.4311 Q67.2695,438.0632 69.3343,438.0632 Q69.915,438.0632 70.4441,438.1922 Q70.9861,438.3213 71.4507,438.5665 L71.4507,440.8119 Q70.9345,440.3345 70.4441,440.1151 Q69.9537,439.8828 69.4375,439.8828 Q68.3277,439.8828 67.7599,440.7732 Q67.1921,441.6508 67.1921,443.38 Q67.1921,445.1093 67.7599,445.9997 Q68.3277,446.8773 69.4375,446.8773 Q69.9537,446.8773 70.4441,446.6579 Q70.9345,446.4256 71.4507,445.9481 L71.4507,448.1936 Z " fill="#D9D3D0"></path><text fill="#D9D3D0" font-family="Verdana" font-size="11.5629" lengthAdjust="spacing" textLength="67.6722" x="83.0544" y="447.5379">ConfigMixin</text><line style="stroke:#D9D3D0;stroke-width:0.8259;" x1="40.437" x2="171.0291" y1="455.0978" y2="455.0978"></line><line style="stroke:#D9D3D0;stroke-width:0.8259;" x1="40.437" x2="171.0291" y1="461.7051" y2="461.7051"></line><ellipse cx="48.6962" cy="472.9776" fill="#003153" rx="2.4778" ry="2.4778" style="stroke:#D9D3D0;stroke-width:0.8259;"></ellipse><text fill="#D9D3D0" font-family="Verdana" font-size="11.5629" lengthAdjust="spacing" textLength="112.4219" x="54.4777" y="475.7417">register_to_config()</text><ellipse cx="48.6962" cy="486.4376" fill="#003153" rx="2.4778" ry="2.4778" style="stroke:#D9D3D0;stroke-width:0.8259;"></ellipse><text fill="#D9D3D0" font-family="Verdana" font-size="11.5629" lengthAdjust="spacing" textLength="77.3493" x="54.4777" y="489.2016">from_config()</text><ellipse cx="48.6962" cy="499.8975" fill="#003153" rx="2.4778" ry="2.4778" style="stroke:#D9D3D0;stroke-width:0.8259;"></ellipse><text fill="#D9D3D0" font-family="Verdana" font-size="11.5629" lengthAdjust="spacing" textLength="77.2533" x="54.4777" y="502.6615">save_config()</text><ellipse cx="48.6962" cy="513.3574" fill="#003153" rx="2.4778" ry="2.4778" style="stroke:#D9D3D0;stroke-width:0.8259;"></ellipse><text fill="#D9D3D0" font-family="Verdana" font-size="11.5629" lengthAdjust="spacing" textLength="74.899" x="54.4777" y="516.1215">load_config()</text></g><!--class PushToHubMixin--><g class="entity" data-entity="PushToHubMixin" data-source-line="16" data-uid="ent0004" id="entity_PushToHubMixin"><rect fill="#003153" height="63.2603" rx="2.0648" ry="2.0648" style="stroke:#D9D3D0;stroke-width:0.8259;" width="122.2676" x="44.5997" y="339.7085"></rect><ellipse cx="56.8734" cy="351.2714" fill="#003153" rx="7.4333" ry="7.4333" style="stroke:#D9D3D0;stroke-width:0.8259;"></ellipse><path d="M59.3253,355.9301 Q58.8478,356.1753 58.3187,356.2914 Q57.7896,356.4205 57.2089,356.4205 Q55.1441,356.4205 54.0472,355.0655 Q52.9632,353.6975 52.9632,351.1165 Q52.9632,348.5355 54.0472,347.1676 Q55.1441,345.7997 57.2089,345.7997 Q57.7896,345.7997 58.3187,345.9287 Q58.8607,346.0578 59.3253,346.303 L59.3253,348.5484 Q58.8091,348.071 58.3187,347.8516 Q57.8283,347.6193 57.3121,347.6193 Q56.2023,347.6193 55.6345,348.5097 Q55.0667,349.3873 55.0667,351.1165 Q55.0667,352.8458 55.6345,353.7363 Q56.2023,354.6138 57.3121,354.6138 Q57.8283,354.6138 58.3187,354.3944 Q58.8091,354.1621 59.3253,353.6846 L59.3253,355.9301 Z " fill="#D9D3D0"></path><text fill="#D9D3D0" font-family="Verdana" font-size="11.5629" lengthAdjust="spacing" textLength="95.7268" x="67.1259" y="355.2744">PushToHubMixin</text><line style="stroke:#D9D3D0;stroke-width:0.8259;" x1="45.4256" x2="166.0413" y1="362.8343" y2="362.8343"></line><line style="stroke:#D9D3D0;stroke-width:0.8259;" x1="45.4256" x2="166.0413" y1="369.4416" y2="369.4416"></line><ellipse cx="53.6848" cy="380.7141" fill="#003153" rx="2.4778" ry="2.4778" style="stroke:#D9D3D0;stroke-width:0.8259;"></ellipse><text fill="#D9D3D0" font-family="Verdana" font-size="11.5629" lengthAdjust="spacing" textLength="82.2105" x="59.4662" y="383.4782">push_to_hub()</text><ellipse cx="53.6848" cy="394.1741" fill="#003153" rx="2.4778" ry="2.4778" style="stroke:#D9D3D0;stroke-width:0.8259;"></ellipse><text fill="#D9D3D0" font-family="Verdana" font-size="11.5629" lengthAdjust="spacing" textLength="102.4455" x="59.4662" y="396.9381">save_pretrained()</text></g><!--class ModelMixin--><g class="entity" data-entity="ModelMixin" data-source-line="21" data-uid="ent0005" id="entity_ModelMixin"><rect fill="#003153" height="63.2603" rx="2.0648" ry="2.0648" style="stroke:#D9D3D0;stroke-width:0.8259;" width="122.3636" x="265.1367" y="366.9639"></rect><ellipse cx="291.1504" cy="378.5268" fill="#003153" rx="7.4333" ry="7.4333" style="stroke:#D9D3D0;stroke-width:0.8259;"></ellipse><path d="M293.6023,383.1855 Q293.1249,383.4306 292.5958,383.5468 Q292.0667,383.6758 291.4859,383.6758 Q289.4211,383.6758 288.3242,382.3208 Q287.2402,380.9529 287.2402,378.3719 Q287.2402,375.7909 288.3242,374.423 Q289.4211,373.055 291.4859,373.055 Q292.0667,373.055 292.5958,373.1841 Q293.1378,373.3131 293.6023,373.5583 L293.6023,375.8038 Q293.0861,375.3263 292.5958,375.1069 Q292.1054,374.8746 291.5892,374.8746 Q290.4793,374.8746 289.9115,375.7651 Q289.3437,376.6426 289.3437,378.3719 Q289.3437,380.1012 289.9115,380.9916 Q290.4793,381.8691 291.5892,381.8691 Q292.1054,381.8691 292.5958,381.6498 Q293.0861,381.4175 293.6023,380.94 L293.6023,383.1855 Z " fill="#D9D3D0"></path><text fill="#D9D3D0" font-family="Verdana" font-size="11.5629" lengthAdjust="spacing" textLength="65.2896" x="304.4563" y="382.5297">ModelMixin</text><line style="stroke:#D9D3D0;stroke-width:0.8259;" x1="265.9627" x2="386.6744" y1="390.0896" y2="390.0896"></line><line style="stroke:#D9D3D0;stroke-width:0.8259;" x1="265.9627" x2="386.6744" y1="396.697" y2="396.697"></line><ellipse cx="274.2219" cy="407.9695" fill="#003153" rx="2.4778" ry="2.4778" style="stroke:#D9D3D0;stroke-width:0.8259;"></ellipse><text fill="#D9D3D0" font-family="Verdana" font-size="11.5629" lengthAdjust="spacing" textLength="102.4455" x="280.0033" y="410.7336">save_pretrained()</text><ellipse cx="274.2219" cy="421.4294" fill="#003153" rx="2.4778" ry="2.4778" style="stroke:#D9D3D0;stroke-width:0.8259;"></ellipse><text fill="#D9D3D0" font-family="Verdana" font-size="11.5629" lengthAdjust="spacing" textLength="102.5415" x="280.0033" y="424.1935">from_pretrained()</text></g><!--class SchedulerMixin--><g class="entity" data-entity="SchedulerMixin" data-source-line="26" data-uid="ent0006" id="entity_SchedulerMixin"><rect fill="#003153" height="63.2603" rx="2.0648" ry="2.0648" style="stroke:#D9D3D0;stroke-width:0.8259;" width="175.2095" x="238.7156" y="459.4669"></rect><ellipse cx="278.9929" cy="471.0298" fill="#003153" rx="7.4333" ry="7.4333" style="stroke:#D9D3D0;stroke-width:0.8259;"></ellipse><path d="M281.4448,475.6885 Q280.9673,475.9337 280.4382,476.0498 Q279.9091,476.1789 279.3284,476.1789 Q277.2636,476.1789 276.1667,474.8238 Q275.0827,473.4559 275.0827,470.8749 Q275.0827,468.2939 276.1667,466.926 Q277.2636,465.558 279.3284,465.558 Q279.9091,465.558 280.4382,465.6871 Q280.9802,465.8161 281.4448,466.0613 L281.4448,468.3068 Q280.9286,467.8293 280.4382,467.6099 Q279.9478,467.3776 279.4316,467.3776 Q278.3218,467.3776 277.754,468.2681 Q277.1862,469.1456 277.1862,470.8749 Q277.1862,472.6042 277.754,473.4946 Q278.3218,474.3722 279.4316,474.3722 Q279.9478,474.3722 280.4382,474.1528 Q280.9286,473.9205 281.4448,473.443 L281.4448,475.6885 Z " fill="#D9D3D0"></path><text fill="#D9D3D0" font-family="Verdana" font-size="11.5629" lengthAdjust="spacing" textLength="88.4605" x="293.4465" y="475.0327">SchedulerMixin</text><line style="stroke:#D9D3D0;stroke-width:0.8259;" x1="239.5415" x2="413.0992" y1="482.5926" y2="482.5926"></line><line style="stroke:#D9D3D0;stroke-width:0.8259;" x1="239.5415" x2="413.0992" y1="489.2" y2="489.2"></line><ellipse cx="247.8007" cy="500.4725" fill="#003153" rx="2.4778" ry="2.4778" style="stroke:#D9D3D0;stroke-width:0.8259;"></ellipse><text fill="#D9D3D0" font-family="Verdana" font-size="11.5629" lengthAdjust="spacing" textLength="155.3874" x="253.5821" y="503.2366">set_num_inference_steps()</text><ellipse cx="247.8007" cy="513.9324" fill="#003153" rx="2.4778" ry="2.4778" style="stroke:#D9D3D0;stroke-width:0.8259;"></ellipse><text fill="#D9D3D0" font-family="Verdana" font-size="11.5629" lengthAdjust="spacing" textLength="34.0337" x="253.5821" y="516.6965">step()</text></g><!--class CacheMixin--><g class="entity" data-entity="CacheMixin" data-source-line="31" data-uid="ent0007" id="entity_CacheMixin"><rect fill="#003153" height="63.2603" rx="2.0648" ry="2.0648" style="stroke:#D9D3D0;stroke-width:0.8259;" width="120.9634" x="45.2521" y="247.2055"></rect><ellipse cx="70.0768" cy="258.7684" fill="#003153" rx="7.4333" ry="7.4333" style="stroke:#D9D3D0;stroke-width:0.8259;"></ellipse><path d="M72.5287,263.4271 Q72.0512,263.6723 71.5221,263.7884 Q70.993,263.9175 70.4123,263.9175 Q68.3475,263.9175 67.2506,262.5625 Q66.1665,261.1945 66.1665,258.6135 Q66.1665,256.0325 67.2506,254.6646 Q68.3475,253.2967 70.4123,253.2967 Q70.993,253.2967 71.5221,253.4257 Q72.0641,253.5548 72.5287,253.8 L72.5287,256.0454 Q72.0125,255.568 71.5221,255.3486 Q71.0317,255.1163 70.5155,255.1163 Q69.4057,255.1163 68.8379,256.0067 Q68.2701,256.8843 68.2701,258.6135 Q68.2701,260.3428 68.8379,261.2332 Q69.4057,262.1108 70.5155,262.1108 Q71.0317,262.1108 71.5221,261.8914 Q72.0125,261.6591 72.5287,261.1816 L72.5287,263.4271 Z " fill="#D9D3D0"></path><text fill="#D9D3D0" font-family="Verdana" font-size="11.5629" lengthAdjust="spacing" textLength="66.5317" x="83.1184" y="262.7714">CacheMixin</text><line style="stroke:#D9D3D0;stroke-width:0.8259;" x1="46.0781" x2="165.3896" y1="270.3313" y2="270.3313"></line><line style="stroke:#D9D3D0;stroke-width:0.8259;" x1="46.0781" x2="165.3896" y1="276.9386" y2="276.9386"></line><ellipse cx="54.3373" cy="288.2111" fill="#003153" rx="2.4778" ry="2.4778" style="stroke:#D9D3D0;stroke-width:0.8259;"></ellipse><text fill="#D9D3D0" font-family="Verdana" font-size="11.5629" lengthAdjust="spacing" textLength="99.0071" x="60.1187" y="290.9752">enable_caching()</text><ellipse cx="54.3373" cy="301.671" fill="#003153" rx="2.4778" ry="2.4778" style="stroke:#D9D3D0;stroke-width:0.8259;"></ellipse><text fill="#D9D3D0" font-family="Verdana" font-size="11.5629" lengthAdjust="spacing" textLength="101.1413" x="60.1187" y="304.4351">disable_caching()</text></g><!--class StableDiffusionMixin--><g class="entity" data-entity="StableDiffusionMixin" data-source-line="37" data-uid="ent0008" id="entity_StableDiffusionMixin"><rect fill="#003153" height="63.2603" rx="2.0648" ry="2.0648" style="stroke:#D9D3D0;stroke-width:0.8259;" width="141.5493" x="34.9529" y="154.7025"></rect><ellipse cx="45.6899" cy="166.2654" fill="#003153" rx="7.4333" ry="7.4333" style="stroke:#D9D3D0;stroke-width:0.8259;"></ellipse><path d="M48.1418,170.9241 Q47.6643,171.1693 47.1352,171.2854 Q46.6061,171.4145 46.0254,171.4145 Q43.9606,171.4145 42.8637,170.0595 Q41.7797,168.6915 41.7797,166.1105 Q41.7797,163.5295 42.8637,162.1616 Q43.9606,160.7937 46.0254,160.7937 Q46.6061,160.7937 47.1352,160.9227 Q47.6772,161.0518 48.1418,161.297 L48.1418,163.5424 Q47.6256,163.0649 47.1352,162.8456 Q46.6448,162.6133 46.1286,162.6133 Q45.0188,162.6133 44.451,163.5037 Q43.8832,164.3813 43.8832,166.1105 Q43.8832,167.8398 44.451,168.7302 Q45.0188,169.6078 46.1286,169.6078 Q46.6448,169.6078 47.1352,169.3884 Q47.6256,169.1561 48.1418,168.6786 L48.1418,170.9241 Z " fill="#D9D3D0"></path><text fill="#D9D3D0" font-family="Verdana" font-size="11.5629" lengthAdjust="spacing" textLength="118.4235" x="55.6009" y="170.2684">StableDiffusionMixin</text><line style="stroke:#D9D3D0;stroke-width:0.8259;" x1="35.7788" x2="175.6763" y1="177.8283" y2="177.8283"></line><line style="stroke:#D9D3D0;stroke-width:0.8259;" x1="35.7788" x2="175.6763" y1="184.4356" y2="184.4356"></line><ellipse cx="44.038" cy="195.7081" fill="#003153" rx="2.4778" ry="2.4778" style="stroke:#D9D3D0;stroke-width:0.8259;"></ellipse><text fill="#D9D3D0" font-family="Verdana" font-size="11.5629" lengthAdjust="spacing" textLength="99.4362" x="49.8195" y="198.4722">encode_prompt()</text><ellipse cx="44.038" cy="209.168" fill="#003153" rx="2.4778" ry="2.4778" style="stroke:#D9D3D0;stroke-width:0.8259;"></ellipse><text fill="#D9D3D0" font-family="Verdana" font-size="11.5629" lengthAdjust="spacing" textLength="96.9746" x="49.8195" y="211.9321">decode_latents()</text></g><!--class DeprecatedPipelineMixin--><g class="entity" data-entity="DeprecatedPipelineMixin" data-source-line="42" data-uid="ent0009" id="entity_DeprecatedPipelineMixin"><rect fill="#003153" height="49.8004" rx="2.0648" ry="2.0648" style="stroke:#D9D3D0;stroke-width:0.8259;" width="166.86" x="22.2998" y="76.364"></rect><ellipse cx="33.0368" cy="87.9269" fill="#003153" rx="7.4333" ry="7.4333" style="stroke:#D9D3D0;stroke-width:0.8259;"></ellipse><path d="M35.4887,92.5856 Q35.0113,92.8308 34.4821,92.9469 Q33.953,93.076 33.3723,93.076 Q31.3075,93.076 30.2106,91.721 Q29.1266,90.353 29.1266,87.772 Q29.1266,85.191 30.2106,83.8231 Q31.3075,82.4552 33.3723,82.4552 Q33.953,82.4552 34.4821,82.5842 Q35.0242,82.7133 35.4887,82.9585 L35.4887,85.2039 Q34.9725,84.7265 34.4821,84.5071 Q33.9918,84.2748 33.4756,84.2748 Q32.3657,84.2748 31.7979,85.1652 Q31.2301,86.0428 31.2301,87.772 Q31.2301,89.5013 31.7979,90.3918 Q32.3657,91.2693 33.4756,91.2693 Q33.9918,91.2693 34.4821,91.0499 Q34.9725,90.8176 35.4887,90.3401 L35.4887,92.5856 Z " fill="#D9D3D0"></path><text fill="#D9D3D0" font-family="Verdana" font-size="11.5629" lengthAdjust="spacing" textLength="143.7342" x="42.9478" y="91.9299">DeprecatedPipelineMixin</text><line style="stroke:#D9D3D0;stroke-width:0.8259;" x1="23.1258" x2="188.3339" y1="99.4898" y2="99.4898"></line><line style="stroke:#D9D3D0;stroke-width:0.8259;" x1="23.1258" x2="188.3339" y1="106.0971" y2="106.0971"></line><ellipse cx="31.3849" cy="117.3696" fill="#003153" rx="2.4778" ry="2.4778" style="stroke:#D9D3D0;stroke-width:0.8259;"></ellipse><text fill="#D9D3D0" font-family="Verdana" font-size="11.5629" lengthAdjust="spacing" textLength="117.9097" x="37.1664" y="120.1337">check_deprecation()</text></g><!--class DiffusionPipeline--><g class="entity" data-entity="DiffusionPipeline" data-source-line="46" data-uid="ent0010" id="entity_DiffusionPipeline"><rect fill="#003153" height="90.1801" rx="2.0648" ry="2.0648" style="stroke:#D9D3D0;stroke-width:0.8259;" width="128.8282" x="261.9074" y="120.6003"></rect><ellipse cx="276.6811" cy="132.1632" fill="#003153" rx="7.4333" ry="7.4333" style="stroke:#D9D3D0;stroke-width:0.8259;"></ellipse><path d="M279.1331,136.8219 Q278.6556,137.0671 278.1265,137.1832 Q277.5974,137.3123 277.0167,137.3123 Q274.9519,137.3123 273.8549,135.9572 Q272.7709,134.5893 272.7709,132.0083 Q272.7709,129.4273 273.8549,128.0594 Q274.9519,126.6914 277.0167,126.6914 Q277.5974,126.6914 278.1265,126.8205 Q278.6685,126.9495 279.1331,127.1947 L279.1331,129.4402 Q278.6169,128.9627 278.1265,128.7433 Q277.6361,128.511 277.1199,128.511 Q276.0101,128.511 275.4422,129.4015 Q274.8744,130.279 274.8744,132.0083 Q274.8744,133.7376 275.4422,134.628 Q276.0101,135.5056 277.1199,135.5056 Q277.6361,135.5056 278.1265,135.2862 Q278.6169,135.0539 279.1331,134.5764 L279.1331,136.8219 Z " fill="#D9D3D0"></path><text fill="#D9D3D0" font-family="Verdana" font-size="11.5629" lengthAdjust="spacing" textLength="96.7318" x="287.4892" y="136.1661">DiffusionPipeline</text><line style="stroke:#D9D3D0;stroke-width:0.8259;" x1="262.7333" x2="389.9096" y1="143.726" y2="143.726"></line><line style="stroke:#D9D3D0;stroke-width:0.8259;" x1="262.7333" x2="389.9096" y1="150.3334" y2="150.3334"></line><ellipse cx="270.9925" cy="161.6059" fill="#003153" rx="2.4778" ry="2.4778" style="stroke:#D9D3D0;stroke-width:0.8259;"></ellipse><text fill="#D9D3D0" font-family="Verdana" font-size="11.5629" lengthAdjust="spacing" textLength="109.0061" x="276.774" y="164.37">register_modules()</text><ellipse cx="270.9925" cy="175.0658" fill="#003153" rx="2.4778" ry="2.4778" style="stroke:#D9D3D0;stroke-width:0.8259;"></ellipse><text fill="#D9D3D0" font-family="Verdana" font-size="11.5629" lengthAdjust="spacing" textLength="102.4455" x="276.774" y="177.8299">save_pretrained()</text><ellipse cx="270.9925" cy="188.5257" fill="#003153" rx="2.4778" ry="2.4778" style="stroke:#D9D3D0;stroke-width:0.8259;"></ellipse><text fill="#D9D3D0" font-family="Verdana" font-size="11.5629" lengthAdjust="spacing" textLength="102.5415" x="276.774" y="191.2898">from_pretrained()</text><ellipse cx="270.9925" cy="201.9856" fill="#003153" rx="2.4778" ry="2.4778" style="stroke:#D9D3D0;stroke-width:0.8259;"></ellipse><text fill="#D9D3D0" font-family="Verdana" font-size="11.5629" lengthAdjust="spacing" textLength="20.6302" x="276.774" y="204.7497">to()</text></g><!--class LegacyConfigMixin--><g class="entity" data-entity="LegacyConfigMixin" data-source-line="53" data-uid="ent0011" id="entity_LegacyConfigMixin"><rect fill="#003153" height="36.3405" rx="2.0648" ry="2.0648" style="stroke:#D9D3D0;stroke-width:0.8259;" width="131.9794" x="260.3299" y="301.964"></rect><ellipse cx="271.0669" cy="313.5269" fill="#003153" rx="7.4333" ry="7.4333" style="stroke:#D9D3D0;stroke-width:0.8259;"></ellipse><path d="M273.5188,318.1856 Q273.0413,318.4308 272.5122,318.5469 Q271.9831,318.676 271.4024,318.676 Q269.3376,318.676 268.2407,317.3209 Q267.1566,315.953 267.1566,313.372 Q267.1566,310.791 268.2407,309.4231 Q269.3376,308.0552 271.4024,308.0552 Q271.9831,308.0552 272.5122,308.1842 Q273.0542,308.3133 273.5188,308.5584 L273.5188,310.8039 Q273.0026,310.3264 272.5122,310.107 Q272.0218,309.8748 271.5056,309.8748 Q270.3958,309.8748 269.828,310.7652 Q269.2602,311.6427 269.2602,313.372 Q269.2602,315.1013 269.828,315.9917 Q270.3958,316.8693 271.5056,316.8693 Q272.0218,316.8693 272.5122,316.6499 Q273.0026,316.4176 273.5188,315.9401 L273.5188,318.1856 Z " fill="#D9D3D0"></path><text fill="#D9D3D0" font-family="Verdana" font-size="11.5629" lengthAdjust="spacing" textLength="108.8536" x="280.9779" y="317.5298">LegacyConfigMixin</text><line style="stroke:#D9D3D0;stroke-width:0.8259;" x1="261.1558" x2="391.4834" y1="325.0897" y2="325.0897"></line><line style="stroke:#D9D3D0;stroke-width:0.8259;" x1="261.1558" x2="391.4834" y1="331.6971" y2="331.6971"></line></g><!--class UNet2DConditionModel--><g class="entity" data-entity="UNet2DConditionModel" data-source-line="58" data-uid="ent0017" id="entity_UNet2DConditionModel"><rect fill="#003153" height="36.3405" rx="2.0648" ry="2.0648" style="stroke:#D9D3D0;stroke-width:0.8259;" width="158.041" x="493.6357" y="349.0414"></rect><ellipse cx="504.3727" cy="360.6043" fill="#003153" rx="7.4333" ry="7.4333" style="stroke:#D9D3D0;stroke-width:0.8259;"></ellipse><path d="M506.8246,365.263 Q506.3471,365.5082 505.818,365.6243 Q505.2889,365.7534 504.7082,365.7534 Q502.6434,365.7534 501.5465,364.3984 Q500.4624,363.0304 500.4624,360.4494 Q500.4624,357.8684 501.5465,356.5005 Q502.6434,355.1326 504.7082,355.1326 Q505.2889,355.1326 505.818,355.2616 Q506.36,355.3907 506.8246,355.6359 L506.8246,357.8813 Q506.3084,357.4039 505.818,357.1845 Q505.3276,356.9522 504.8114,356.9522 Q503.7016,356.9522 503.1338,357.8426 Q502.566,358.7202 502.566,360.4494 Q502.566,362.1787 503.1338,363.0691 Q503.7016,363.9467 504.8114,363.9467 Q505.3276,363.9467 505.818,363.7273 Q506.3084,363.495 506.8246,363.0175 L506.8246,365.263 Z " fill="#D9D3D0"></path><text fill="#D9D3D0" font-family="Verdana" font-size="11.5629" lengthAdjust="spacing" textLength="134.9153" x="514.2837" y="364.6073">UNet2DConditionModel</text><line style="stroke:#D9D3D0;stroke-width:0.8259;" x1="494.4616" x2="650.8508" y1="372.1672" y2="372.1672"></line><line style="stroke:#D9D3D0;stroke-width:0.8259;" x1="494.4616" x2="650.8508" y1="378.7745" y2="378.7745"></line></g><g class="entity" data-entity="GMN20" data-source-line="62" data-uid="ent0021" id="entity_GMN20"><path d="M260.5529,239.9126 L260.5529,273.1688 L392.0928,273.1688 L392.0928,248.1718 L383.8336,239.9126 L260.5529,239.9126" fill="#003153" style="stroke:#D9D3D0;stroke-width:0.8259;"></path><path d="M383.8336,239.9126 L383.8336,248.1718 L392.0928,248.1718 L383.8336,239.9126" fill="#003153" style="stroke:#D9D3D0;stroke-width:0.8259;"></path><text fill="#D9D3D0" font-family="Verdana" font-size="10.737" lengthAdjust="spacing" textLength="85.8958" x="265.5084" y="254.0085">提供配置管理功能</text><text fill="#D9D3D0" font-family="Verdana" font-size="10.737" lengthAdjust="spacing" textLength="107.3697" x="265.5084" y="266.507">所有可配置组件的基类</text></g><g class="entity" data-entity="GMN23" data-source-line="67" data-uid="ent0024" id="entity_GMN23"><path d="M511.3352,414.1817 L511.3352,419.4924 L387.6289,406.5585 L511.3352,426.0997 L511.3352,447.4379 A0,0 0 0 0 511.3352,447.4379 L633.9677,447.4379 A0,0 0 0 0 633.9677,447.4379 L633.9677,422.4409 L625.7085,414.1817 L511.3352,414.1817 A0,0 0 0 0 511.3352,414.1817" fill="#003153" style="stroke:#D9D3D0;stroke-width:0.8259;"></path><path d="M625.7085,414.1817 L625.7085,422.4409 L633.9677,422.4409 L625.7085,414.1817" fill="#003153" style="stroke:#D9D3D0;stroke-width:0.8259;"></path><text fill="#D9D3D0" font-family="Verdana" font-size="10.737" lengthAdjust="spacing" textLength="75.1588" x="516.2907" y="428.2776">所有模型的基类</text><text fill="#D9D3D0" font-family="Verdana" font-size="10.737" lengthAdjust="spacing" textLength="98.4623" x="516.2907" y="440.7761">继承自 ConfigMixin</text></g><g class="entity" data-entity="GMN26" data-source-line="72" data-uid="ent0027" id="entity_GMN26"><path d="M463.4814,149.0615 L463.4814,162.3836 L391.1143,165.6872 L463.4814,168.9909 L463.4814,182.3176 A0,0 0 0 0 463.4814,182.3176 L681.8291,182.3176 A0,0 0 0 0 681.8291,182.3176 L681.8291,157.3207 L673.5699,149.0615 L463.4814,149.0615 A0,0 0 0 0 463.4814,149.0615" fill="#003153" style="stroke:#D9D3D0;stroke-width:0.8259;"></path><path d="M673.5699,149.0615 L673.5699,157.3207 L681.8291,157.3207 L673.5699,149.0615" fill="#003153" style="stroke:#D9D3D0;stroke-width:0.8259;"></path><text fill="#D9D3D0" font-family="Verdana" font-size="10.737" lengthAdjust="spacing" textLength="194.1775" x="468.4369" y="163.1574">继承 ConfigMixin 和 PushToHubMixin</text><text fill="#D9D3D0" font-family="Verdana" font-size="10.737" lengthAdjust="spacing" textLength="75.1588" x="468.4369" y="175.6558">管道的核心基类</text></g><!--reverse link ConfigMixin to LegacyConfigMixin--><g class="link" data-entity-1="ConfigMixin" data-entity-2="LegacyConfigMixin" data-source-line="53" data-uid="lnk12" id="link_ConfigMixin_LegacyConfigMixin"><path codeline="53" d="M183.5907,423.323 C189.5621,418.4418 183.8415,422.7713 189.1604,417.5928 C215.2347,392.1792 209.4698,374.042 238.7156,352.3451 C245.8763,347.0344 254.0116,342.5084 262.3617,338.6761" fill="none" id="ConfigMixin-backto-LegacyConfigMixin" style="stroke:#D9D3D0;stroke-width:0.8259;"></path><polygon fill="none" points="172.0804,432.7319,186.727,427.1598,180.4544,419.4862,172.0804,432.7319" style="stroke:#D9D3D0;stroke-width:0.8259;"></polygon></g><!--reverse link ConfigMixin to DiffusionPipeline--><g class="link" data-entity-1="ConfigMixin" data-entity-2="DiffusionPipeline" data-source-line="54" data-uid="lnk13" id="link_ConfigMixin_DiffusionPipeline"><path codeline="54" d="M183.0157,426.9079 C189.4414,421.0191 184.3783,424.5966 189.1604,417.5928 C238.9881,344.6723 188.0454,297.4875 238.7156,225.1535 C244.9513,216.25 252.971,208.2799 261.6183,201.2761" fill="none" id="ConfigMixin-backto-DiffusionPipeline" style="stroke:#D9D3D0;stroke-width:0.8259;"></path><polygon fill="none" points="172.0556,436.9523,186.3638,430.5613,179.6676,423.2545,172.0556,436.9523" style="stroke:#D9D3D0;stroke-width:0.8259;"></polygon></g><!--reverse link PushToHubMixin to DiffusionPipeline--><g class="link" data-entity-1="PushToHubMixin" data-entity-2="DiffusionPipeline" data-source-line="55" data-uid="lnk14" id="link_PushToHubMixin_DiffusionPipeline"><path codeline="55" d="M179.595,334.8916 C187.5486,329.6139 182.7595,331.821 189.1604,325.0897 C223.3287,289.1705 206.2074,262.5841 238.7156,225.1535 C245.422,217.4311 253.3509,210.2456 261.6348,203.7208" fill="none" id="PushToHubMixin-backto-DiffusionPipeline" style="stroke:#D9D3D0;stroke-width:0.8259;"></path><polygon fill="none" points="167.2074,343.1113,182.3349,339.0207,176.855,330.7624,167.2074,343.1113" style="stroke:#D9D3D0;stroke-width:0.8259;"></polygon></g><!--reverse link ConfigMixin to ModelMixin--><g class="link" data-entity-1="ConfigMixin" data-entity-2="ModelMixin" data-source-line="56" data-uid="lnk15" id="link_ConfigMixin_ModelMixin"><path codeline="56" d="M186.2401,448.5037 C215.709,437.9402 236.2626,430.5762 265.0872,420.244" fill="none" id="ConfigMixin-backto-ModelMixin" style="stroke:#D9D3D0;stroke-width:0.8259;"></path><polygon fill="none" points="172.2456,453.5203,187.9123,453.1686,184.568,443.8388,172.2456,453.5203" style="stroke:#D9D3D0;stroke-width:0.8259;"></polygon></g><!--reverse link ConfigMixin to SchedulerMixin--><g class="link" data-entity-1="ConfigMixin" data-entity-2="SchedulerMixin" data-source-line="57" data-uid="lnk16" id="link_ConfigMixin_SchedulerMixin"><path codeline="57" d="M187.0818,482.2205 C207.8619,483.5503 216.3332,484.0958 238.3687,485.5164" fill="none" id="ConfigMixin-backto-SchedulerMixin" style="stroke:#D9D3D0;stroke-width:0.8259;"></path><polygon fill="none" points="172.2456,481.2712,186.7653,487.1659,187.3982,477.2751,172.2456,481.2712" style="stroke:#D9D3D0;stroke-width:0.8259;"></polygon></g><!--reverse link ModelMixin to UNet2DConditionModel--><g class="link" data-entity-1="ModelMixin" data-entity-2="UNet2DConditionModel" data-source-line="58" data-uid="lnk18" id="link_ModelMixin_UNet2DConditionModel"><path codeline="58" d="M402.3745,388.9484 C434.288,384.8518 459.071,381.6735 493.3218,377.2796" fill="none" id="ModelMixin-backto-UNet2DConditionModel" style="stroke:#D9D3D0;stroke-width:0.8259;"></path><polygon fill="none" points="387.6289,390.8412,403.0054,393.8636,401.7435,384.0332,387.6289,390.8412" style="stroke:#D9D3D0;stroke-width:0.8259;"></polygon></g><!--reverse link DeprecatedPipelineMixin to DiffusionPipeline--><g class="link" data-entity-1="DeprecatedPipelineMixin" data-entity-2="DiffusionPipeline" data-source-line="59" data-uid="lnk19" id="link_DeprecatedPipelineMixin_DiffusionPipeline"><path codeline="59" d="M203.5878,129.8175 C227.5643,136.8709 239.0955,140.2654 261.7257,146.9223" fill="none" id="DeprecatedPipelineMixin-backto-DiffusionPipeline" style="stroke:#D9D3D0;stroke-width:0.8259;"></path><polygon fill="none" points="189.3256,125.6219,202.1893,134.5716,204.9863,125.0634,189.3256,125.6219" style="stroke:#D9D3D0;stroke-width:0.8259;"></polygon></g><!--link ConfigMixin to GMN20--><g class="link" data-entity-1="ConfigMixin" data-entity-2="GMN20" data-source-line="62" data-uid="lnk22" id="link_ConfigMixin_GMN20"><path d="M172.1052,435.6639 C178.3574,430.0807 184.2049,424.0349 189.1604,417.5928 C226.7893,368.6983 194.7023,331.152 238.7156,287.9234 C244.8852,281.8611 252.3185,276.9634 260.1977,272.999" fill="none" id="ConfigMixin-GMN20" style="stroke:#D9D3D0;stroke-width:0.8259;stroke-dasharray:5.7814,5.7814;"></path></g><!--SRC=[VPHDRzD048Rl-ok6da2eKiM52oUI0mU2AW5dQxCxZbTrTgtTDHygbK0jeF2XLd2Z5IKd48SWBWWHbVwPEcx_1MlN8VvA95yyy-upxywCVSK6E4JeXp56MaXBY64qHBYviG6F1RS1iSAwznuL4cvJWz09gJ5eI8Y-1Qj0Yq5WWGkDp0eb2Oaesw83X3KkV3ysgCqQR1F2idFGKT8NWvvuud3R00JWEcWS26DHUrPvBCzVlLQaVAs6zPYXZx0U2nNbvTXE7YzgRiOcUA3knFrgsSY5iv91tA-o8urMk_iYRx9wYcDOvRIT-Uzz5Ui-2v378UeQ3wqduw4df8yQ9KFFDISo2u_khGdhK4UhWb3IVkXQvJ92Bdh5XMd42zJ2ciqatNo0RgXrBdDTS5TJmyWki9X7GsfHMjCqs7KBXinb-QQ8C7GjgLATVRRbyKBbYhOWvdxcXEOA3LNMKRDoeCk6ayMjAfSjR-kjP-lhS1S7b3qjXrj4JPj0QZkuLDU0bHQk9LjR8I0bUIvuU0_jZQuxnqNMqppjPCk6iTINUwIoM7pjoeTg3m1c-mTdVmylNhvFJoRfP9mUl4hU79_ldbmcHyzdHwDa_qUHd-wTJN-bd_QIup_fpwcJeEIGyrigLJemPys-ZPFFRyi8W7JwTJOwFN_zlMPk5RpzhfUa2YRvyAx-8ycLa_75Yu_En-pBx-Hqjt4XGiZEFm00]--></g></svg>